<svg width="70" height="70" viewBox="0 0 70 70" fill="none" xmlns="http://www.w3.org/2000/svg">
<path d="M68.834 25.6666H45.2488C42.7833 22.6283 39.684 20.1652 36.1675 18.4496V13.4166L40.3675 10.2666C40.6612 10.0463 40.8341 9.7005 40.8341 9.33329V1.16666C40.8341 0.522373 40.3118 0 39.6675 0H35.0008C34.6914 0 34.3947 0.123083 34.176 0.341832L32.6675 1.85033L31.159 0.341832C30.9403 0.123083 30.6436 0 30.3342 0H23.3342C23.0248 0 22.7281 0.123083 22.5094 0.341832L21.0009 1.85033L19.4924 0.341832C19.2736 0.123083 18.977 0 18.6676 0H14.0009C13.3566 0 12.8343 0.522373 12.8343 1.16666V9.33329C12.8343 9.7005 13.0072 10.0463 13.3009 10.2666L17.5009 13.4166V18.4613C8.66927 22.7347 0.000976562 34.2135 0.000976562 48.9356C0.000976562 62.3219 9.7811 69.9997 26.8342 69.9997C29.6022 70.0096 32.3653 69.7643 35.0883 69.267C35.2652 69.7083 35.6921 69.9981 36.1675 69.9997H68.834C69.4783 69.9997 70.0007 69.4773 70.0007 68.833V26.8332C70.0007 26.1889 69.4783 25.6666 68.834 25.6666ZM15.1676 8.74996V2.33332H18.1846L20.1761 4.32482C20.6316 4.78025 21.3701 4.78025 21.8257 4.32482L23.8172 2.33332H29.8512L31.8427 4.32482C32.2983 4.78025 33.0368 4.78025 33.4923 4.32482L35.4838 2.33332H38.5008V8.74996L34.6123 11.6666H19.0561L15.1676 8.74996ZM33.8342 13.9999V17.4999H19.8342V13.9999H33.8342ZM35.0008 54.2183C29.5417 58.7385 21.4519 57.9775 16.9316 52.5184C12.4113 47.0593 13.1723 38.9696 18.6314 34.4492C23.3796 30.5175 30.2525 30.5175 35.0007 34.4492V54.2183H35.0008ZM35.0008 26.8332V31.5664C27.9503 27.0441 18.5685 29.0936 14.0463 36.1442C9.524 43.1948 11.5735 52.5765 18.6241 57.0988C23.6139 60.2994 30.0112 60.2994 35.001 57.0988V66.9104C32.3095 67.4252 29.5745 67.6783 26.8343 67.6664C19.468 67.6664 2.33445 65.8417 2.33445 48.9356C2.33445 37.7742 9.02408 23.8862 20.224 19.8333H33.4528C36.753 21.086 39.7203 23.082 42.1246 25.6666H36.1676C35.5232 25.6666 35.0008 26.1889 35.0008 26.8332ZM67.6674 67.6664H37.3342V37.3332H67.6674V67.6664ZM67.6674 34.9999H37.3342V27.9999H67.6674V34.9999Z" fill="url(#paint0_linear_60_435)"/>
<defs>
<linearGradient id="paint0_linear_60_435" x1="16.4799" y1="4.66628" x2="31.0855" y2="60.988" gradientUnits="userSpaceOnUse">
<stop stop-color="#FF9700"/>
<stop offset="0.9977" stop-color="#FF6800"/>
<stop offset="1" stop-color="#FF6802"/>
</linearGradient>
</defs>
</svg>
