<svg width="70" height="70" viewBox="0 0 70 70" fill="none" xmlns="http://www.w3.org/2000/svg">
<path d="M47.3047 43.6133C46.5497 43.6133 45.9375 44.2254 45.9375 44.9805V54.4141C45.9375 58.1834 42.8709 61.25 39.1016 61.25H24.3403C23.5855 61.25 22.9737 61.8615 22.9731 62.6162L22.9712 65.3345L19.708 62.0714C19.4968 61.5865 19.0133 61.25 18.4542 61.25H9.57031C5.80098 61.25 2.73438 58.1834 2.73438 54.4141V33.3594C2.73438 29.59 5.80098 26.5234 9.57031 26.5234H23.3789C24.1339 26.5234 24.7461 25.9113 24.7461 25.1562C24.7461 24.4012 24.1339 23.7891 23.3789 23.7891H9.57031C4.29324 23.7891 0 28.0823 0 33.3594V54.4141C0 59.6911 4.29324 63.9844 9.57031 63.9844H17.754L23.3692 69.5996C23.6307 69.8611 23.9803 70 24.3362 70C24.5122 70 24.6898 69.966 24.8586 69.8961C25.3695 69.6847 25.7027 69.1865 25.7031 68.6338L25.7064 63.9844H39.1016C44.3786 63.9844 48.6719 59.6911 48.6719 54.4141V44.9805C48.6719 44.2254 48.0596 43.6133 47.3047 43.6133Z" fill="url(#paint0_linear_223_6)"/>
<path d="M50.1286 0H46.6684C35.7112 0 26.7969 8.91434 26.7969 19.8715C26.7969 30.8287 35.7112 39.7429 46.6683 39.7429H50.1285C51.8387 39.7429 53.5314 39.5257 55.172 39.0964L60.2835 44.205C60.5451 44.4663 60.8945 44.6052 61.2503 44.6052C61.4265 44.6052 61.6042 44.5711 61.7734 44.501C62.2841 44.2894 62.6172 43.7909 62.6172 43.238V35.328C64.7813 33.5754 66.579 31.3615 67.8407 28.8883C69.2736 26.0792 70 23.0456 70 19.8715C70 8.91434 61.0857 0 50.1286 0ZM60.4274 33.5692C60.0846 33.8275 59.8828 34.2319 59.8828 34.6613V39.9387L56.5372 36.5948C56.2769 36.3348 55.9277 36.1946 55.5706 36.1946C55.4366 36.1946 55.3012 36.2145 55.1692 36.2551C53.5418 36.7552 51.8459 37.0087 50.1286 37.0087H46.6684C37.2188 37.0087 29.5312 29.321 29.5312 19.8715C29.5312 10.4221 37.2189 2.73438 46.6684 2.73438H50.1286C59.5781 2.73438 67.2656 10.4221 67.2656 19.8715C67.2656 25.3035 64.7732 30.2962 60.4274 33.5692Z" fill="url(#paint1_linear_223_6)"/>
<defs>
<linearGradient id="paint0_linear_223_6" x1="11.458" y1="26.8695" x2="20.6697" y2="64.2831" gradientUnits="userSpaceOnUse">
<stop stop-color="#FF9700"/>
<stop offset="0.9977" stop-color="#FF6800"/>
<stop offset="1" stop-color="#FF6802"/>
</linearGradient>
<linearGradient id="paint1_linear_223_6" x1="36.9675" y1="2.97343" x2="46.5366" y2="38.7141" gradientUnits="userSpaceOnUse">
<stop stop-color="#FF9700"/>
<stop offset="0.9977" stop-color="#FF6800"/>
<stop offset="1" stop-color="#FF6802"/>
</linearGradient>
</defs>
</svg>
