<svg width="71" height="65" viewBox="0 0 71 65" fill="none" xmlns="http://www.w3.org/2000/svg">
<path d="M31.4523 43.2742C31.4523 43.2742 30.9037 42.5894 30.1723 41.8588C29.5141 43.5026 28.7461 46.2421 28.4901 49.347C28.4901 49.347 28.3804 44.918 29.5872 41.3109C28.4535 40.352 27.0639 39.5758 26.0765 40.5347C22.5292 44.0048 19.3476 57.4287 20.1155 61.0358C20.4812 62.8166 21.3223 63.7297 22.7486 64.8256C22.4195 61.812 24.248 50.7168 27.0639 45.2376C26.4056 48.3425 26.113 54.3695 28.7461 59.803C29.5141 60.9445 31.3791 60.9445 31.818 60.8532C28.8924 52.0865 31.4523 43.2742 31.4523 43.2742Z" fill="url(#paint0_linear_45_66)"/>
<path d="M70.0341 42.0415C69.9975 41.8588 69.7781 41.8588 69.7416 42.0415C69.3027 44.0962 68.3885 45.2376 67.8033 45.6029C66.5965 43.5026 66.1943 34.051 66.1943 33.9141C66.1577 33.3205 65.2069 32.316 63.9635 31.6311C61.7693 32.6813 60.2333 35.3295 59.8676 35.9687C60.0505 35.2838 61.2207 32.5443 63.2687 31.3115C62.5372 31.0375 61.7327 30.9005 60.9647 31.0832C59.4288 31.4028 56.2838 37.4755 56.1009 43.2743C54.1627 48.9817 52.2245 50.8081 50.396 51.2647C50.5423 51.8126 50.7617 52.1322 50.7617 52.1322C49.8474 51.4473 49.372 49.1644 49.372 49.1644C48.7869 46.3791 49.5549 43.7765 50.4325 41.8588C50.4325 41.8132 50.4691 41.8132 50.4691 41.7675C50.7982 41.0369 51.1639 40.4434 51.4931 39.9411C52.6267 38.1147 53.3216 37.7038 53.3216 37.7038C53.3216 37.7038 52.773 38.5713 52.2976 39.6672C52.2976 40.3977 52.2976 41.4022 52.2976 42.2241C52.261 43.3199 52.9559 44.2331 53.8336 44.3245C53.8701 44.3245 53.9067 44.3245 53.9433 44.3245C54.309 43.4113 55.1501 39.1649 55.1501 37.8864C55.1501 37.4755 55.0038 37.0646 54.7478 36.7906C54.3455 36.3797 53.797 35.8318 53.029 35.4208C50.7982 36.4253 49.1892 39.1649 48.86 39.8041C49.0429 39.1193 50.2497 36.334 52.3342 35.1012C51.6028 34.8273 50.7251 34.6903 49.7377 34.9642C47.8726 35.4208 45.7881 41.8588 45.4956 43.3656C43.7402 48.7534 41.6923 54.3696 38.0719 55.2828C38.2181 55.8307 38.4376 56.1503 38.4376 56.1503C37.3039 55.1001 37.0845 53.1824 37.0845 53.1824C37.0479 53.0454 37.0479 52.8628 37.0113 52.6802C38.0719 52.6345 39.5712 50.9908 40.6318 49.8036C43.6671 46.3791 43.2648 41.2653 43.2282 40.9456C43.1917 40.6717 42.314 39.7128 41.0706 39.0279C38.8764 39.9411 37.2307 42.4981 36.865 43.0916C37.0479 42.4067 38.3278 39.8498 40.3392 38.6627C39.5712 38.343 38.6935 38.2061 37.7793 38.3887C35.0365 38.9823 28.2711 53.7303 37.1942 58.7985C37.1942 58.7985 41.9848 59.2551 45.459 49.621C45.971 51.7213 47.1778 53.502 49.3354 54.5979C52.773 54.3239 55.0038 50.9451 56.5398 47.2467C57.0517 48.9817 58.4048 51.0364 60.1602 51.9039C61.879 51.0364 63.6709 49.347 65.3166 45.6942L65.3532 45.7855C65.6091 46.6074 66.304 48.2055 67.1085 49.4383C67.2548 49.6666 67.5108 49.7123 67.6936 49.5753C69.3027 48.3425 71.0947 45.7399 70.0341 42.0415ZM38.3278 45.6486C38.401 45.4659 38.4741 45.329 38.5838 45.1463C39.3518 43.6396 40.1198 42.7264 40.1198 42.7264C40.8512 41.7675 41.29 41.4936 41.29 41.4936C41.29 41.4936 40.6318 42.5437 40.1563 43.7765C40.0832 47.1097 38.145 50.8081 36.9748 51.9953C36.8285 49.5296 37.5599 47.338 38.3278 45.6486ZM63.0858 36.0144C63.6709 37.2016 63.8538 38.6626 63.6709 40.0781C63.0492 44.4158 61.4036 46.8814 60.7087 47.7946C60.8185 48.6621 61.2207 49.2557 61.2207 49.2557C60.8916 49.0274 60.6356 48.6164 60.4162 48.1598C60.3796 48.1142 60.3796 48.0685 60.3796 48.0229C60.0139 47.1553 59.8311 46.2878 59.8311 46.2878C59.0265 42.8177 60.0505 39.8498 61.111 37.9321C61.9521 36.4253 62.7932 35.5121 62.7932 35.5121C63.7441 34.4163 64.2926 34.2337 64.2926 34.2337C64.2926 34.2337 63.6344 35.0099 63.0858 36.0144Z" fill="url(#paint1_linear_45_66)"/>
<path d="M35.9484 6.80328C38.1426 6.11838 39.0569 2.87655 39.0934 1.09583C38.9106 1.14149 25.7819 4.61162 25.7819 4.61162C25.7819 4.61162 38.9837 0.0456596 39.0934 0C36.5701 0.730553 5.37581 9.54285 5.37581 9.54285C2.92561 10.2277 0.914254 12.5107 0.292562 15.5699C0.109711 16.3461 0 17.2137 0 18.1725L12.507 14.2001C12.507 14.2001 7.16774 29.1308 7.93571 39.7695C7.93571 39.7695 8.15514 35.1122 10.4225 26.6196C9.76422 31.5051 9.21567 36.5733 9.14253 40.4544C9.10596 42.3721 9.47166 44.2441 10.2396 45.8879L11.0442 47.5773C12.2876 36.9386 14.5915 23.2864 18.7239 12.1911L35.9484 6.80328Z" fill="url(#paint2_linear_45_66)"/>
<path d="M62.1327 8.85794C59.7191 9.72547 58.0003 12.6934 57.598 13.3782C57.7808 12.6477 59.1339 9.5885 61.4379 8.49267C60.743 8.17305 60.0116 8.03607 59.2071 8.26437C55.6963 9.22322 50.0645 22.7385 57.598 28.035C60.3773 27.5327 66.7771 21.9166 63.9612 10.7756C63.8881 10.5473 63.1566 9.58849 62.1327 8.85794ZM61.2184 12.8303C63.8881 18.5378 58.366 24.5648 58.2928 24.4735C56.7203 20.7751 57.6711 17.4876 58.8779 15.2959H58.8414C58.9511 15.1133 59.0608 14.9763 59.1339 14.7937C59.4631 14.2458 59.7922 13.7892 60.0848 13.4239C61.2916 11.8258 62.0595 11.5519 62.0595 11.5519C62.0595 11.5519 61.6207 12.0998 61.2184 12.8303Z" fill="url(#paint3_linear_45_66)"/>
<path d="M42.1657 16.7571C42.1657 16.7571 41.6537 15.8895 40.8857 15.0677C40.2275 16.7114 39.4595 19.4053 39.2401 22.5102C39.2401 22.5102 39.1304 18.1269 40.3372 14.5198C39.5327 13.8349 38.5453 13.3783 37.6676 14.0632C35.8391 15.4786 33.6449 21.46 32.2918 25.5694C32.8038 22.3275 33.3523 19.3597 33.7911 18.4008C33.2792 16.7571 32.1455 15.433 30.6827 15.2047C30.6827 15.2047 30.6827 15.2503 30.6461 15.3416C28.0131 29.8157 24.1366 33.3315 22.3081 33.4685C22.4544 34.0621 22.7104 34.4273 22.7104 34.4273C22.4178 34.2447 22.1984 33.8794 22.0156 33.4685V33.4228C21.6864 32.6466 21.467 31.6878 21.3573 30.8659C21.3573 30.8202 21.3573 30.7746 21.3207 30.7289C21.2476 30.3636 21.211 29.9984 21.211 29.6331C21.211 29.4961 21.211 29.4504 21.211 29.4504C22.1253 29.4504 23.7344 29.3135 24.7218 28.172C27.6108 24.9758 27.5377 19.7706 27.5011 19.4966C27.4645 19.2683 26.8063 18.3095 25.7823 17.5789C23.2955 18.2638 21.4304 21.1861 21.0282 21.8253C21.2476 21.0947 22.7104 18.0812 25.0875 17.1223C24.3926 16.7571 23.6247 16.5744 22.8201 16.7114C20.4065 17.168 13.7507 31.2312 21.211 36.893C21.211 36.893 25.6726 37.8062 29.3662 27.5327C29.2199 29.3135 29.0736 31.2312 28.9639 33.2858C28.9639 33.2858 29.9879 35.5688 30.9387 35.9341C30.9387 35.9341 35.2539 22.6471 37.9601 18.3551C37.0093 21.1404 36.1682 26.5739 38.0698 31.5051C38.6915 32.5553 40.4469 32.5553 40.8857 32.464C38.8378 24.7018 42.1657 16.7571 42.1657 16.7571ZM24.5389 21.1404C24.7218 24.7018 22.3447 27.5327 21.1013 28.7655C21.1745 23.743 24.5389 21.1404 24.5389 21.1404Z" fill="url(#paint4_linear_45_66)"/>
<path d="M52.8443 13.3783C52.8443 13.3783 52.3323 12.7847 51.6009 12.1455C50.9427 13.7892 50.1381 16.5288 49.8821 19.7249C49.8821 19.7249 49.7724 15.2503 50.9792 11.6432C49.8456 10.8213 48.4559 10.1364 47.5051 10.9583C43.9212 13.9718 41.471 25.615 42.1658 28.7655C42.5316 30.318 43.3361 31.0942 44.7623 32.053C44.6526 31.0942 44.4332 28.8568 45.0183 26.9391L43.9944 27.2131C44.7989 23.743 46.152 20.6838 46.2617 20.6838L45.2012 21.0947C46.4446 18.1268 48.4559 15.022 48.4559 15.022C48.4559 15.022 47.9439 18.4465 49.041 21.0034L47.9805 20.5925C47.9805 20.5925 48.1268 24.0169 49.6993 25.8433L48.6753 25.9803C49.7359 29.3135 52.5883 28.6742 53.0272 28.5829C50.2113 21.0947 52.8443 13.3783 52.8443 13.3783Z" fill="url(#paint5_linear_45_66)"/>
<defs>
<linearGradient id="paint0_linear_45_66" x1="22.2369" y1="35.0358" x2="30.479" y2="60.5611" gradientUnits="userSpaceOnUse">
<stop stop-color="#FF9700"/>
<stop offset="0.9977" stop-color="#FF6800"/>
<stop offset="1" stop-color="#FF6802"/>
</linearGradient>
<linearGradient id="paint1_linear_45_66" x1="47.2607" y1="26.9558" x2="55.5028" y2="52.481" gradientUnits="userSpaceOnUse">
<stop stop-color="#FF9700"/>
<stop offset="0.9977" stop-color="#FF6800"/>
<stop offset="1" stop-color="#FF6802"/>
</linearGradient>
<linearGradient id="paint2_linear_45_66" x1="20.4499" y1="13.487" x2="28.6921" y2="39.0122" gradientUnits="userSpaceOnUse">
<stop stop-color="#FF9700"/>
<stop offset="0.9977" stop-color="#FF6800"/>
<stop offset="1" stop-color="#FF6802"/>
</linearGradient>
<linearGradient id="paint3_linear_45_66" x1="55.9955" y1="2.00928" x2="64.2377" y2="27.5346" gradientUnits="userSpaceOnUse">
<stop stop-color="#FF9700"/>
<stop offset="0.9977" stop-color="#FF6800"/>
<stop offset="1" stop-color="#FF6802"/>
</linearGradient>
<linearGradient id="paint4_linear_45_66" x1="27.3571" y1="11.2568" x2="35.5993" y2="36.7821" gradientUnits="userSpaceOnUse">
<stop stop-color="#FF9700"/>
<stop offset="0.9977" stop-color="#FF6800"/>
<stop offset="1" stop-color="#FF6802"/>
</linearGradient>
<linearGradient id="paint5_linear_45_66" x1="44.3464" y1="5.77095" x2="52.5885" y2="31.2963" gradientUnits="userSpaceOnUse">
<stop stop-color="#FF9700"/>
<stop offset="0.9977" stop-color="#FF6800"/>
<stop offset="1" stop-color="#FF6802"/>
</linearGradient>
</defs>
</svg>
