<svg width="122" height="56" viewBox="0 0 122 56" fill="none" xmlns="http://www.w3.org/2000/svg">
<path d="M35.9484 14.2833C38.1426 13.5984 39.0569 10.3566 39.0934 8.57587C38.9106 8.62153 25.7819 12.0917 25.7819 12.0917C25.7819 12.0917 38.9837 7.5257 39.0934 7.48004C36.5701 8.2106 5.37581 17.0229 5.37581 17.0229C2.92561 17.7078 0.914254 19.9908 0.292562 23.05C0.109711 23.8262 0 24.6937 0 25.6526L12.507 21.6802C12.507 21.6802 7.16774 36.6109 7.93571 47.2495C7.93571 47.2495 8.15514 42.5923 10.4225 34.0996C9.76422 38.9852 9.21567 44.0534 9.14253 47.9344C9.10596 49.8521 9.47166 51.7242 10.2396 53.3679L11.0442 55.0573C12.2876 44.4186 14.5915 30.7664 18.7239 19.6711L35.9484 14.2833Z" fill="#DCDCDC"/>
<path d="M62.1327 16.338C59.7191 17.2055 58.0003 20.1734 57.598 20.8583C57.7808 20.1277 59.1339 17.0685 61.4379 15.9727C60.743 15.6531 60.0116 15.5161 59.2071 15.7444C55.6963 16.7033 50.0645 30.2185 57.598 35.515C60.3773 35.0128 66.7771 29.3966 63.9612 18.2557C63.8881 18.0274 63.1566 17.0685 62.1327 16.338ZM61.2184 20.3104C63.8881 26.0178 58.366 32.0449 58.2928 31.9536C56.7203 28.2551 57.6711 24.9676 58.8779 22.776H58.8414C58.9511 22.5933 59.0608 22.4564 59.1339 22.2737C59.4631 21.7258 59.7922 21.2692 60.0848 20.9039C61.2916 19.3059 62.0595 19.0319 62.0595 19.0319C62.0595 19.0319 61.6207 19.5798 61.2184 20.3104Z" fill="#DCDCDC"/>
<path d="M82.1007 12.2743C82.1007 12.2743 81.5522 11.5894 80.8208 10.8588C80.1625 12.5026 79.3945 15.2422 79.1385 18.347C79.1385 18.347 79.0288 13.918 80.2356 10.3109C79.102 9.35207 77.7123 8.57585 76.7249 9.5347C73.1776 13.0048 69.996 26.4288 70.764 30.0359C71.1297 31.8166 71.9708 32.7298 73.397 33.8256C73.0679 30.8121 74.8964 19.7168 77.7123 14.2377C77.054 17.3425 76.7615 23.3696 79.3945 28.8031C80.1625 29.9445 82.0276 29.9445 82.4664 29.8532C79.5408 21.0866 82.1007 12.2743 82.1007 12.2743Z" fill="#DCDCDC"/>
<path d="M120.683 11.0415C120.646 10.8588 120.427 10.8588 120.39 11.0415C119.951 13.0962 119.037 14.2376 118.452 14.6029C117.245 12.5026 116.843 3.05104 116.843 2.91406C116.806 2.32049 115.855 1.31598 114.612 0.631081C112.418 1.68125 110.882 4.32951 110.516 4.96874C110.699 4.28385 111.869 1.54427 113.917 0.311459C113.186 0.0375012 112.381 -0.0994776 111.613 0.0831608C110.077 0.402778 106.932 6.4755 106.749 12.2743C104.811 17.9817 102.873 19.8081 101.044 20.2647C101.191 20.8126 101.41 21.1322 101.41 21.1322C100.496 20.4473 100.02 18.1644 100.02 18.1644C99.4353 15.3791 100.203 12.7765 101.081 10.8588C101.081 10.8132 101.118 10.8132 101.118 10.7675C101.447 10.0369 101.812 9.44337 102.142 8.94112C103.275 7.11474 103.97 6.7038 103.97 6.7038C103.97 6.7038 103.421 7.57134 102.946 8.66717C102.946 9.39773 102.946 10.4022 102.946 11.2241C102.909 12.3199 103.604 13.2331 104.482 13.3245C104.519 13.3245 104.555 13.3245 104.592 13.3245C104.957 12.4113 105.799 8.16491 105.799 6.88644C105.799 6.4755 105.652 6.06457 105.396 5.79061C104.994 5.37967 104.445 4.83176 103.677 4.42082C101.447 5.42533 99.8376 8.16491 99.5085 8.80415C99.6913 8.11925 100.898 5.33402 102.983 4.10121C102.251 3.82726 101.374 3.69027 100.386 3.96423C98.5211 4.42082 96.4366 10.8588 96.144 12.3656C94.3887 17.7534 92.3407 23.3696 88.7203 24.2828C88.8666 24.8307 89.086 25.1503 89.086 25.1503C87.9523 24.1001 87.7329 22.1824 87.7329 22.1824C87.6963 22.0454 87.6963 21.8628 87.6598 21.6802C88.7203 21.6345 90.2197 19.9908 91.2802 18.8036C94.3155 15.3791 93.9132 10.2653 93.8767 9.94563C93.8401 9.67168 92.9624 8.71282 91.719 8.02793C89.5248 8.94112 87.8792 11.4981 87.5135 12.0916C87.6963 11.4067 88.9763 8.8498 90.9876 7.66266C90.2197 7.34304 89.342 7.20606 88.4277 7.3887C85.685 7.98227 78.9195 22.7303 87.8426 27.7985C87.8426 27.7985 92.6333 28.2551 96.1074 18.621C96.6194 20.7213 97.8262 22.502 99.9839 23.5979C103.421 23.3239 105.652 19.9451 107.188 16.2467C107.7 17.9817 109.053 20.0364 110.809 20.9039C112.527 20.0364 114.319 18.347 115.965 14.6942L116.002 14.7855C116.258 15.6074 116.952 17.2055 117.757 18.4383C117.903 18.6666 118.159 18.7123 118.342 18.5753C119.951 17.3425 121.743 14.7399 120.683 11.0415ZM88.9763 14.6486C89.0494 14.4659 89.1226 14.329 89.2323 14.1463C90.0002 12.6396 90.7682 11.7264 90.7682 11.7264C91.4996 10.7675 91.9385 10.4936 91.9385 10.4936C91.9385 10.4936 91.2802 11.5437 90.8048 12.7765C90.7316 16.1097 88.7934 19.8081 87.6232 20.9953C87.4769 18.5296 88.2083 16.338 88.9763 14.6486ZM113.734 5.0144C114.319 6.20155 114.502 7.66264 114.319 9.07809C113.698 13.4158 112.052 15.8814 111.357 16.7946C111.467 17.6621 111.869 18.2557 111.869 18.2557C111.54 18.0274 111.284 17.6164 111.065 17.1598C111.028 17.1142 111.028 17.0685 111.028 17.0229C110.662 16.1553 110.48 15.2878 110.48 15.2878C109.675 11.8177 110.699 8.8498 111.759 6.9321C112.601 5.42533 113.442 4.51215 113.442 4.51215C114.393 3.41632 114.941 3.23367 114.941 3.23367C114.941 3.23367 114.283 4.00989 113.734 5.0144Z" fill="#DCDCDC"/>
<path d="M42.1657 24.237C42.1657 24.237 41.6537 23.3695 40.8857 22.5476C40.2275 24.1914 39.4595 26.8853 39.2401 29.9902C39.2401 29.9902 39.1304 25.6068 40.3372 21.9997C39.5327 21.3148 38.5453 20.8583 37.6676 21.5431C35.8391 22.9586 33.6449 28.94 32.2918 33.0493C32.8038 29.8075 33.3523 26.8397 33.7911 25.8808C33.2792 24.2371 32.1455 22.9129 30.6827 22.6846C30.6827 22.6846 30.6827 22.7303 30.6461 22.8216C28.0131 37.2957 24.1366 40.8115 22.3081 40.9485C22.4544 41.542 22.7104 41.9073 22.7104 41.9073C22.4178 41.7247 22.1984 41.3594 22.0156 40.9485V40.9028C21.6864 40.1266 21.467 39.1677 21.3573 38.3459C21.3573 38.3002 21.3573 38.2546 21.3207 38.2089C21.2476 37.8436 21.211 37.4783 21.211 37.1131C21.211 36.9761 21.211 36.9304 21.211 36.9304C22.1253 36.9304 23.7344 36.7934 24.7218 35.6519C27.6108 32.4558 27.5377 27.2506 27.5011 26.9766C27.4645 26.7483 26.8063 25.7895 25.7823 25.0589C23.2955 25.7438 21.4304 28.666 21.0282 29.3053C21.2476 28.5747 22.7104 25.5612 25.0875 24.6023C24.3926 24.237 23.6247 24.0544 22.8201 24.1914C20.4065 24.648 13.7507 38.7112 21.211 44.3729C21.211 44.3729 25.6726 45.2861 29.3662 35.0127C29.2199 36.7934 29.0736 38.7111 28.9639 40.7658C28.9639 40.7658 29.9879 43.0488 30.9387 43.4141C30.9387 43.4141 35.254 30.1271 37.9601 25.8351C37.0093 28.6204 36.1682 34.0539 38.0698 38.9851C38.6915 40.0353 40.4469 40.0353 40.8857 39.944C38.8378 32.1818 42.1657 24.237 42.1657 24.237ZM24.5389 28.6204C24.7218 32.1818 22.3447 35.0127 21.1013 36.2455C21.1745 31.223 24.5389 28.6204 24.5389 28.6204Z" fill="#DCDCDC"/>
<path d="M52.8433 20.8582C52.8433 20.8582 52.3314 20.2647 51.6 19.6254C50.9417 21.2692 50.1371 24.0087 49.8812 27.2049C49.8812 27.2049 49.7714 22.7303 50.9783 19.1232C49.8446 18.3013 48.4549 17.6164 47.5041 18.4383C43.9202 21.4518 41.47 33.095 42.1649 36.2455C42.5306 37.7979 43.3351 38.5742 44.7613 39.533C44.6516 38.5742 44.4322 36.3368 45.0173 34.4191L43.9934 34.6931C44.7979 31.223 46.151 28.1638 46.2607 28.1638L45.2002 28.5747C46.4436 25.6068 48.4549 22.502 48.4549 22.502C48.4549 22.502 47.9429 25.9264 49.0401 28.4834L47.9795 28.0725C47.9795 28.0725 48.1258 31.4969 49.6983 33.3233L48.6743 33.4603C49.7349 36.7934 52.5873 36.1542 53.0262 36.0629C50.2103 28.5747 52.8433 20.8582 52.8433 20.8582Z" fill="#DCDCDC"/>
</svg>
